<svg xmlns="http://www.w3.org/2000/svg" fill="none" viewBox="0 0 128 128">
    <path d="M66.4442 40.9156C66.4442 40.9156 66.4442 41.1104 66.4442 41.1753V41.4351L73.5014 42.0519L75.5734 42.7013V43.9675L73.5014 44.6169L66.4442 45.2337C66.4442 45.2337 66.4442 47.0519 66.4442 48.0909C66.4442 55.6233 67.2535 63.7077 72.9188 63.7077C74.3114 63.6442 75.674 63.2809 76.9141 62.6422C78.1542 62.0035 79.2427 61.1046 80.1055 60.0065H79.2638C79.0585 60.0063 78.8571 59.9502 78.6811 59.8442C78.5443 59.7777 78.4289 59.6739 78.3482 59.5447C78.2674 59.4155 78.2246 59.2661 78.2246 59.1136C78.2246 58.9612 78.2674 58.8117 78.3482 58.6825C78.4289 58.5533 78.5443 58.4496 78.6811 58.3831C79.279 58.1763 79.8373 57.8689 80.3322 57.474C80.9326 56.8713 81.5706 56.3075 82.2422 55.7857H82.5659C84.1846 55.7857 81.0444 70.8831 64.0162 70.8831C46.988 70.8831 43.8478 55.7857 45.4665 55.7857H45.7902C46.4618 56.3075 47.0998 56.8713 47.7002 57.474C48.1951 57.8689 48.7535 58.1763 49.3513 58.3831C49.4881 58.4496 49.6035 58.5533 49.6842 58.6825C49.765 58.8117 49.8078 58.9612 49.8078 59.1136C49.8078 59.2661 49.765 59.4155 49.6842 59.5447C49.6035 59.6739 49.4881 59.7777 49.3513 59.8442C49.1624 59.9475 48.9513 60.0032 48.7362 60.0065H47.8945C48.7573 61.1046 49.8458 62.0035 51.0859 62.6422C52.326 63.2809 53.6886 63.6442 55.0812 63.7077C60.8113 63.7077 61.5558 55.6233 61.5558 48.0909C61.5558 47.0519 61.5558 45.2337 61.5558 45.2337L54.4986 44.6169L52.4266 43.9675V42.7013L54.4986 42.0519L61.5558 41.4351V41.2078C61.5558 41.2078 61.5558 41.2078 61.5558 40.9481C61.1674 20.3636 36.8553 14 22.158 14C20.5718 14 19.0826 14 17.8201 14H15.91L14 14.1948L64.2104 114L114 14.422L112.09 14.2272H110.18C108.917 14.2272 107.428 14.2272 105.842 14.2272C91.1447 13.9675 66.8003 20.3311 66.4442 40.9156Z"/>
    <style>
        path { fill: #000; }
        @media (prefers-color-scheme: dark) {
            path { fill: #FFF; }
        }
    </style>
</svg>
